<?xml version="1.0" encoding="UTF-8" standalone="no"?>
<svg
   xmlns:dc="http://purl.org/dc/elements/1.1/"
   xmlns:cc="http://creativecommons.org/ns#"
   xmlns:rdf="http://www.w3.org/1999/02/22-rdf-syntax-ns#"
   xmlns:svg="http://www.w3.org/2000/svg"
   xmlns="http://www.w3.org/2000/svg"
   xmlns:sodipodi="http://sodipodi.sourceforge.net/DTD/sodipodi-0.dtd"
   xmlns:inkscape="http://www.inkscape.org/namespaces/inkscape"
   width="91.44mm"
   height="91.44mm"
   version="1.1"
   viewBox="0 0 9144 9144"
   id="svg4"
   sodipodi:docname="email.svg"
   inkscape:version="0.92.4 (5da689c313, 2019-01-14)">
  <metadata
     id="metadata10">
    <rdf:RDF>
      <cc:Work
         rdf:about="">
        <dc:format>image/svg+xml</dc:format>
        <dc:type
           rdf:resource="http://purl.org/dc/dcmitype/StillImage" />
        <dc:title />
      </cc:Work>
    </rdf:RDF>
  </metadata>
  <defs
     id="defs8" />
  <sodipodi:namedview
     pagecolor="#ffffff"
     bordercolor="#666666"
     borderopacity="1"
     objecttolerance="10"
     gridtolerance="10"
     guidetolerance="10"
     inkscape:pageopacity="0"
     inkscape:pageshadow="2"
     inkscape:window-width="1366"
     inkscape:window-height="705"
     id="namedview6"
     showgrid="false"
     inkscape:zoom="0.68287035"
     inkscape:cx="-65.166109"
     inkscape:cy="172.8"
     inkscape:window-x="-8"
     inkscape:window-y="-8"
     inkscape:window-maximized="1"
     inkscape:current-layer="svg4" />
  <path
     inkscape:connector-curvature="0"
     style="fill:#000;stroke-width:88.23199463;opacity:0"
     d="m 6989.3051,5293.0119 c 0,221.7476 -216.259,395.9782 -491.4973,395.9782 H 2762.4295 c -275.2386,0 -491.4973,-174.2306 -491.4973,-395.9782 V 3233.9257 c 0,-87.1151 39.3196,-174.2304 98.2993,-237.587 v 0 0 c 88.4695,-95.0346 226.0889,-158.391 393.198,-158.391 h 3735.3783 c 157.2789,0 304.7281,63.3564 393.1977,158.391 v 0 0 c 58.9795,63.3566 98.2996,150.4719 98.2996,237.587 z m -4226.8756,237.5869 h 3735.3783 c 58.9796,0 117.9593,-15.8393 167.1091,-47.5174 L 5219.9152,4318.9057 4915.1867,4564.412 c -157.2789,126.7132 -412.8572,126.7132 -570.1366,0 L 4040.322,4318.9057 2595.3204,5483.0814 c 49.1498,31.6781 108.1295,47.5174 167.1091,47.5174 z M 2467.5312,3233.9257 v 2059.0862 c 0,47.5174 19.6597,95.0348 58.9796,134.6327 L 3971.5126,4263.4689 2516.6807,3107.2127 c -29.4898,39.5979 -49.1495,79.1956 -49.1495,126.713 z m 4030.2766,-237.587 H 2762.4295 c -68.8098,0 -137.6193,23.7587 -186.7692,55.4372 L 4413.86,4508.9752 c 117.9593,95.0347 304.7281,95.0347 422.6875,0 L 6674.7468,3051.7759 c -39.3197,-31.6785 -108.1295,-55.4372 -176.939,-55.4372 z m 294.8983,237.587 c 0,-47.5174 -19.66,-87.1151 -49.1499,-126.713 L 5288.7247,4263.4689 6733.7265,5427.6446 c 29.4897,-39.5979 58.9796,-87.1153 58.9796,-134.6327 z"
     id="path14" />
  <path
     inkscape:connector-curvature="0"
     style="fill:#000;stroke-width:86.96896362;opacity:0"
     d="m 7113.3117,5244.2669 c 0,213.9406 -217.7793,382.0371 -494.9523,382.0371 H 2856.7225 c -277.1733,0 -494.9523,-168.0965 -494.9523,-382.0371 V 3257.6747 c 0,-84.0479 39.5961,-168.0962 98.9904,-229.2219 v 0 0 c 89.0913,-91.6888 227.6781,-152.8149 395.9619,-152.8149 h 3761.6369 c 158.3846,0 306.8703,61.1261 395.9616,152.8149 v 0 0 c 59.3943,61.1257 98.9907,145.174 98.9907,229.2219 z M 2856.7225,5473.489 h 3761.6369 c 59.3942,0 118.7885,-15.2815 168.2838,-45.8444 L 5331.4837,4304.456 5024.6134,4541.3188 c -158.385,122.252 -415.7599,122.252 -574.1448,0 L 4143.5983,4304.456 2688.4387,5427.6446 c 49.4954,30.5629 108.8896,45.8444 168.2838,45.8444 z M 2559.7513,3257.6747 v 1986.5922 c 0,45.8444 19.7979,91.6888 59.3942,129.8927 L 4074.3052,4250.971 2609.2463,3135.4229 c -29.6971,38.2039 -49.495,76.4074 -49.495,122.2518 z M 6618.3594,3028.4528 H 2856.7225 c -69.2934,0 -138.5867,22.9222 -188.082,53.4852 l 1851.1217,1405.8958 c 118.7884,91.6889 306.8703,91.6889 425.6587,0 L 6796.5422,3081.938 c -39.5961,-30.563 -108.8897,-53.4852 -178.1828,-53.4852 z m 296.9713,229.2219 c 0,-45.8444 -19.7983,-84.0479 -49.4954,-122.2518 L 5400.7769,4250.971 6855.9365,5374.1596 c 29.6971,-38.2039 59.3942,-84.0483 59.3942,-129.8927 z"
     id="path14-7" />
  <path
     inkscape:connector-curvature="0"
     style="fill:#000;stroke-width:86.96897125;opacity:0"
     d="m 7070.8232,5302.685 c 0,213.9407 -217.7793,382.0373 -494.9523,382.0373 H 2814.2336 c -277.1733,0 -494.9523,-168.0966 -494.9523,-382.0373 V 3316.0927 c 0,-84.0479 39.5961,-168.0962 98.9904,-229.222 v 0 0 c 89.0913,-91.6888 227.6781,-152.8149 395.9619,-152.8149 h 3761.6373 c 158.3846,0 306.8704,61.1261 395.9617,152.8149 v 0 0 c 59.3942,61.1258 98.9906,145.1741 98.9906,229.222 z m -4256.5896,229.2222 h 3761.6373 c 59.3942,0 118.7887,-15.2815 168.2837,-45.8444 L 5288.995,4362.874 4982.1246,4599.7369 c -158.3848,122.252 -415.7598,122.252 -574.1447,0 L 4101.1096,4362.874 2645.9498,5486.0628 c 49.4954,30.5629 108.8896,45.8444 168.2838,45.8444 z M 2517.2624,3316.0927 V 5302.685 c 0,45.8444 19.7979,91.6888 59.3942,129.8927 L 4031.8165,4309.389 2566.7574,3193.8409 c -29.6971,38.2039 -49.495,76.4074 -49.495,122.2518 z m 4058.6085,-229.222 H 2814.2336 c -69.2934,0 -138.5867,22.9223 -188.082,53.4853 l 1851.1219,1405.8958 c 118.7884,91.689 306.8703,91.689 425.6588,0 L 6754.0538,3140.356 c -39.5963,-30.563 -108.8898,-53.4853 -178.1829,-53.4853 z m 296.9712,229.222 c 0,-45.8444 -19.7982,-84.0479 -49.4953,-122.2518 L 5358.2883,4309.389 6813.4479,5432.5777 c 29.6971,-38.2039 59.3942,-84.0483 59.3942,-129.8927 z"
     id="path14-7-1" />
  <path
     style="opacity:1;fill:#ffffff;fill-opacity:1;stroke:#ffffff;stroke-width:0;stroke-miterlimit:4;stroke-dasharray:none;stroke-opacity:1"
     d="m 2651.4299,4274.9852 c 0,-564.7195 9.7328,-1026.7627 21.6285,-1026.7627 39.0476,0 1295.7274,972.5168 1295.7274,1002.7348 0,32.612 -1252.1395,1050.7906 -1292.2452,1050.7906 -13.8109,0 -25.1107,-462.0432 -25.1107,-1026.7627 z"
     id="path820"
     inkscape:connector-curvature="0" />
  <path
     style="opacity:1;fill:#ffffff;fill-opacity:1;stroke:#ffffff;stroke-width:0;stroke-miterlimit:4;stroke-dasharray:none;stroke-opacity:1"
     d="m 3614.8363,5445.2812 -852.4068,-20.5158 271.2204,-224.586 c 149.1713,-123.522 430.565,-345.9488 625.3195,-494.2813 l 354.0992,-269.6956 201.9216,135.8831 c 166.7782,112.2336 237.146,135.8831 404.3095,135.8831 168.5798,0 233.7948,-22.3292 390.4004,-133.6717 103.4065,-73.5195 206.7303,-122.595 229.6083,-109.0562 22.8777,13.5384 302.491,234.9701 621.3628,492.0699 l 579.7667,467.4547 -502.2752,24.642 c -556.3079,27.2931 -1054.6758,26.4081 -2323.3264,-4.1262 z"
     id="path824"
     inkscape:connector-curvature="0" />
  <path
     style="opacity:1;fill:#ffffff;fill-opacity:1;stroke:#ffffff;stroke-width:0;stroke-miterlimit:4;stroke-dasharray:none;stroke-opacity:1"
     d="m 4524.3162,4364.3263 c -42.6204,-25.0029 -469.7923,-343.0286 -949.2713,-706.7238 l -871.7795,-661.2638 961.6463,-10.3693 c 528.9058,-5.7031 1382.6779,-5.7031 1897.2713,0 l 935.6248,10.3693 -882.819,697.4236 c -485.5504,383.5831 -912.1503,701.6089 -948,706.7238 -35.8494,5.1149 -100.0522,-11.157 -142.6726,-36.1598 z"
     id="path828"
     inkscape:connector-curvature="0" />
  <path
     style="opacity:1;fill:#ffffff;fill-opacity:1;stroke:#ffffff;stroke-width:0;stroke-miterlimit:4;stroke-dasharray:none;stroke-opacity:1"
     d="m 5838.6738,4752.3398 -649.5637,-501.3688 649.5637,-495.0483 649.5637,-495.0484 10.8112,497.7646 c 5.946,273.7702 5.946,722.1579 0,996.4168 l -10.8112,498.6528 z"
     id="path830"
     inkscape:connector-curvature="0" />
  <path
     style="opacity:0;fill:#0000ff;fill-opacity:1;stroke:#ffffff;stroke-width:0;stroke-miterlimit:4;stroke-dasharray:none;stroke-opacity:1"
     d="m 93.728577,211.23203 c -7.377424,-4.4983 -8.013269,-9.07896 -7.496305,-54.00376 l 0.460607,-40.02734 4.782425,-4.27097 4.782425,-4.27097 h 78.227331 c 51.8556,0 79.61708,0.52656 82.34978,1.56196 2.26735,0.85907 5.60516,2.95089 7.41737,4.64848 3.27114,3.06428 3.29491,3.39471 3.29491,45.81743 v 42.7309 l -3.60491,3.88977 c -1.98271,2.13937 -5.32053,4.54204 -7.41737,5.33926 -2.34105,0.89006 -33.58914,1.44738 -80.96458,1.44402 -73.88892,-0.005 -77.350052,-0.12616 -81.831683,-2.85878 z M 250.56877,206.997 c 0.42207,-0.68291 -10.85036,-10.51378 -25.04983,-21.84636 l -25.81722,-20.60471 -8.41785,5.93643 c -7.75792,5.47103 -8.99767,5.88072 -15.81382,5.22577 -5.75134,-0.55263 -8.86668,-1.91579 -14.00972,-6.13012 l -6.61374,-5.41946 -26.3138,20.20954 c -14.4726,11.11525 -26.34752,20.65795 -26.38872,21.206 -0.0412,0.54805 1.40779,1.28204 3.22,1.63108 6.33494,1.22017 144.44431,1.02216 145.2047,-0.20817 z M 129.89288,178.31906 c 10.87322,-8.69554 19.76949,-16.3435 19.76949,-16.99547 0,-1.21275 -51.033255,-40.94934 -52.590768,-40.94934 -1.150735,0 -1.1095,78.18845 0.04282,81.19134 0.755245,1.96814 1.892761,1.55247 6.955928,-2.54178 3.32917,-2.69208 14.94931,-12.00921 25.82253,-20.70475 z m 122.27797,22.59756 c -3.19487,-3.53028 -1.32237,-3.91684 2.4474,-0.50524 2.5884,2.34248 2.67802,1.04228 2.67802,-38.85436 v -41.27793 l -21.6,16.43746 c -11.88,9.0406 -23.57695,18.05304 -25.99322,20.02765 -4.44834,3.63525 -5.96599,8.33431 -3.23654,10.0212 0.85394,0.52777 1.04542,0.19908 0.44757,-0.76828 -0.5747,-0.92987 -0.42771,-1.69067 0.32663,-1.69067 1.7874,0 4.85654,3.7075 3.87865,4.68538 -0.41518,0.41519 0.41426,1.67252 1.84322,2.79408 2.36246,1.85424 2.41582,1.80676 0.58828,-0.52353 -1.1054,-1.40949 -1.35083,-2.56271 -0.54541,-2.56271 1.85716,0 4.97669,3.68023 3.97154,4.68538 -0.41519,0.41519 0.37601,1.67252 1.75822,2.79408 1.66286,1.34928 2.14104,1.41988 1.41337,0.20868 -0.60485,-1.00678 -0.48255,-1.83051 0.27179,-1.83051 1.7874,0 4.85654,3.70749 3.87866,4.68538 -0.41519,0.41519 0.41425,1.67252 1.84321,2.79407 2.36246,1.85425 2.41582,1.80676 0.58828,-0.52352 -1.1054,-1.40949 -1.35083,-2.56271 -0.54541,-2.56271 1.85716,0 4.9767,3.68023 3.97155,4.68538 -0.41519,0.41519 0.41425,1.67252 1.8432,2.79407 2.36247,1.85425 2.41582,1.80677 0.5883,-0.52352 -1.10541,-1.40949 -1.35085,-2.56271 -0.54542,-2.56271 1.83073,0 4.98321,3.67371 3.99795,4.65897 -0.40067,0.40066 0.74692,1.98749 2.55019,3.52628 2.65399,2.26475 2.90053,2.30954 1.29406,0.23509 -1.09151,-1.40949 -1.32559,-2.56271 -0.52017,-2.56271 1.85716,0 4.9767,3.68023 3.97155,4.68538 -0.41519,0.41519 0.41425,1.67252 1.8432,2.79407 2.36247,1.85424 2.41582,1.80676 0.5883,-0.52352 -2.44372,-3.11597 0.17019,-3.46496 2.74201,-0.3661 1.00267,1.20813 1.3107,2.19661 0.68455,2.19661 -0.62616,0 0.0542,1.31796 1.51206,2.92881 1.4578,1.61085 2.98004,2.92881 3.38275,2.92881 0.40271,0 -0.46054,-1.31796 -1.91834,-2.92881 z m -52.5481,-42.8339 c 17.13927,-13.7918 20.95051,-16.32622 18.71839,-12.44746 -0.57938,1.00678 -0.67319,1.50102 -0.20846,1.09831 0.46472,-0.40271 0.73512,-1.15726 0.60088,-1.67676 -0.36139,-1.39863 5.10066,-7.10968 6.79969,-7.10968 0.80543,0 0.20906,1.48271 -1.32527,3.29491 l -2.78967,3.29492 3.30389,-2.7978 c 1.81714,-1.5388 2.96892,-3.13277 2.55952,-3.54218 -0.98261,-0.98261 3.69426,-6.10748 5.57357,-6.10748 0.80543,0 0.20905,1.42644 -1.32527,3.16986 -1.53433,1.74343 2.94874,-1.05725 9.96236,-6.22373 7.01363,-5.16647 12.77973,-10.01962 12.81356,-10.78477 0.0338,-0.76516 -0.72926,-0.60041 -1.69577,0.3661 -2.54057,2.54057 -4.79693,2.16451 -2.63593,-0.43932 1.61643,-1.94768 -6.66124,-2.19661 -73.04103,-2.19661 -41.17523,0 -74.86406,0.53687 -74.86406,1.19306 0,0.65618 11.17021,9.64995 24.82269,19.98615 13.65249,10.33621 24.69045,19.51933 24.52882,20.40694 -0.16164,0.88762 0.59921,1.42598 1.69077,1.19636 2.44694,-0.51472 6.3092,2.50607 5.29737,4.14324 -0.40698,0.65851 0.0316,1.67414 0.97459,2.25695 1.07082,0.6618 1.32225,0.42488 0.66967,-0.63102 -0.57469,-0.92986 -0.42771,-1.69067 0.32663,-1.69067 1.8481,0 4.8411,3.72294 3.81662,4.74743 -0.44931,0.44931 -0.0123,1.31422 0.97117,1.92203 1.14262,0.70618 1.41091,0.4948 0.74321,-0.58557 -0.5747,-0.92986 -0.42771,-1.69067 0.32663,-1.69067 1.66376,0 4.88736,3.67668 4.00086,4.56318 -0.34798,0.34798 2.12893,0.61683 5.50423,0.59747 5.55227,-0.0319 7.82727,-1.39544 23.88034,-14.31319 z"
     id="path832"
     inkscape:connector-curvature="0"
     transform="scale(26.458333)" />
  <path
     style="opacity:0;fill:#ffffff;fill-opacity:1;stroke:#ffffff;stroke-width:0;stroke-miterlimit:4;stroke-dasharray:none;stroke-opacity:1"
     d="m 166.155,164.45104 c -4.48559,-3.14217 -20.15736,-14.83912 -34.82615,-25.99322 l -26.67053,-20.28018 34.58338,-0.39261 c 19.02086,-0.21593 50.22492,-0.21593 69.34235,0 l 34.75896,0.39261 -26.33862,20.64089 c -26.08991,20.44599 -40.69882,31.34555 -42.01312,31.34555 -0.37435,0 -4.35067,-2.57087 -8.83627,-5.71304 z"
     id="path834"
     inkscape:connector-curvature="0"
     transform="scale(26.458333)" />
  <path
     style="opacity:0;fill:#ffffff;fill-opacity:1;stroke:#ffffff;stroke-width:0;stroke-miterlimit:4;stroke-dasharray:none;stroke-opacity:1"
     d="m 166.155,164.45104 c -4.48559,-3.14217 -20.15736,-14.83912 -34.82615,-25.99322 l -26.67053,-20.28018 34.58338,-0.39261 c 19.02086,-0.21593 50.22492,-0.21593 69.34235,0 l 34.75896,0.39261 -26.33862,20.64089 c -26.08991,20.44599 -40.69882,31.34555 -42.01312,31.34555 -0.37435,0 -4.35067,-2.57087 -8.83627,-5.71304 z"
     id="path836"
     inkscape:connector-curvature="0"
     transform="scale(26.458333)" />
</svg>
