<?xml version="1.0" encoding="UTF-8" standalone="no"?>
<svg
   xmlns:dc="http://purl.org/dc/elements/1.1/"
   xmlns:cc="http://creativecommons.org/ns#"
   xmlns:rdf="http://www.w3.org/1999/02/22-rdf-syntax-ns#"
   xmlns:svg="http://www.w3.org/2000/svg"
   xmlns="http://www.w3.org/2000/svg"
   xmlns:sodipodi="http://sodipodi.sourceforge.net/DTD/sodipodi-0.dtd"
   xmlns:inkscape="http://www.inkscape.org/namespaces/inkscape"
   width="91.44mm"
   height="91.44mm"
   version="1.1"
   viewBox="0 0 9144 9144"
   id="svg4"
   sodipodi:docname="email.svg"
   inkscape:version="0.92.4 (5da689c313, 2019-01-14)">
  <metadata
     id="metadata10">
    <rdf:RDF>
      <cc:Work
         rdf:about="">
        <dc:format>image/svg+xml</dc:format>
        <dc:type
           rdf:resource="http://purl.org/dc/dcmitype/StillImage" />
        <dc:title />
      </cc:Work>
    </rdf:RDF>
  </metadata>
  <defs
     id="defs8" />
  <sodipodi:namedview
     pagecolor="#ffffff"
     bordercolor="#666666"
     borderopacity="1"
     objecttolerance="10"
     gridtolerance="10"
     guidetolerance="10"
     inkscape:pageopacity="0"
     inkscape:pageshadow="2"
     inkscape:window-width="1366"
     inkscape:window-height="705"
     id="namedview6"
     showgrid="false"
     inkscape:zoom="0.68287035"
     inkscape:cx="172.8"
     inkscape:cy="172.8"
     inkscape:window-x="-8"
     inkscape:window-y="-8"
     inkscape:window-maximized="1"
     inkscape:current-layer="svg4" />
  <path
     inkscape:connector-curvature="0"
     style="fill:#FFFFFF;stroke-width:88.23199463"
     d="m 6989.3051,5293.0119 c 0,221.7476 -216.259,395.9782 -491.4973,395.9782 H 2762.4295 c -275.2386,0 -491.4973,-174.2306 -491.4973,-395.9782 V 3233.9257 c 0,-87.1151 39.3196,-174.2304 98.2993,-237.587 v 0 0 c 88.4695,-95.0346 226.0889,-158.391 393.198,-158.391 h 3735.3783 c 157.2789,0 304.7281,63.3564 393.1977,158.391 v 0 0 c 58.9795,63.3566 98.2996,150.4719 98.2996,237.587 z m -4226.8756,237.5869 h 3735.3783 c 58.9796,0 117.9593,-15.8393 167.1091,-47.5174 L 5219.9152,4318.9057 4915.1867,4564.412 c -157.2789,126.7132 -412.8572,126.7132 -570.1366,0 L 4040.322,4318.9057 2595.3204,5483.0814 c 49.1498,31.6781 108.1295,47.5174 167.1091,47.5174 z M 2467.5312,3233.9257 v 2059.0862 c 0,47.5174 19.6597,95.0348 58.9796,134.6327 L 3971.5126,4263.4689 2516.6807,3107.2127 c -29.4898,39.5979 -49.1495,79.1956 -49.1495,126.713 z m 4030.2766,-237.587 H 2762.4295 c -68.8098,0 -137.6193,23.7587 -186.7692,55.4372 L 4413.86,4508.9752 c 117.9593,95.0347 304.7281,95.0347 422.6875,0 L 6674.7468,3051.7759 c -39.3197,-31.6785 -108.1295,-55.4372 -176.939,-55.4372 z m 294.8983,237.587 c 0,-47.5174 -19.66,-87.1151 -49.1499,-126.713 L 5288.7247,4263.4689 6733.7265,5427.6446 c 29.4897,-39.5979 58.9796,-87.1153 58.9796,-134.6327 z"
     id="path14" />
  <path
     inkscape:connector-curvature="0"
     style="fill:#FFFFFF;stroke-width:86.96896362"
     d="m 7113.3117,5244.2669 c 0,213.9406 -217.7793,382.0371 -494.9523,382.0371 H 2856.7225 c -277.1733,0 -494.9523,-168.0965 -494.9523,-382.0371 V 3257.6747 c 0,-84.0479 39.5961,-168.0962 98.9904,-229.2219 v 0 0 c 89.0913,-91.6888 227.6781,-152.8149 395.9619,-152.8149 h 3761.6369 c 158.3846,0 306.8703,61.1261 395.9616,152.8149 v 0 0 c 59.3943,61.1257 98.9907,145.174 98.9907,229.2219 z M 2856.7225,5473.489 h 3761.6369 c 59.3942,0 118.7885,-15.2815 168.2838,-45.8444 L 5331.4837,4304.456 5024.6134,4541.3188 c -158.385,122.252 -415.7599,122.252 -574.1448,0 L 4143.5983,4304.456 2688.4387,5427.6446 c 49.4954,30.5629 108.8896,45.8444 168.2838,45.8444 z M 2559.7513,3257.6747 v 1986.5922 c 0,45.8444 19.7979,91.6888 59.3942,129.8927 L 4074.3052,4250.971 2609.2463,3135.4229 c -29.6971,38.2039 -49.495,76.4074 -49.495,122.2518 z M 6618.3594,3028.4528 H 2856.7225 c -69.2934,0 -138.5867,22.9222 -188.082,53.4852 l 1851.1217,1405.8958 c 118.7884,91.6889 306.8703,91.6889 425.6587,0 L 6796.5422,3081.938 c -39.5961,-30.563 -108.8897,-53.4852 -178.1828,-53.4852 z m 296.9713,229.2219 c 0,-45.8444 -19.7983,-84.0479 -49.4954,-122.2518 L 5400.7769,4250.971 6855.9365,5374.1596 c 29.6971,-38.2039 59.3942,-84.0483 59.3942,-129.8927 z"
     id="path14-7" />
  <path
     inkscape:connector-curvature="0"
     style="fill:#FFFFFF;stroke-width:86.96897125"
     d="m 7070.8232,5302.685 c 0,213.9407 -217.7793,382.0373 -494.9523,382.0373 H 2814.2336 c -277.1733,0 -494.9523,-168.0966 -494.9523,-382.0373 V 3316.0927 c 0,-84.0479 39.5961,-168.0962 98.9904,-229.222 v 0 0 c 89.0913,-91.6888 227.6781,-152.8149 395.9619,-152.8149 h 3761.6373 c 158.3846,0 306.8704,61.1261 395.9617,152.8149 v 0 0 c 59.3942,61.1258 98.9906,145.1741 98.9906,229.222 z m -4256.5896,229.2222 h 3761.6373 c 59.3942,0 118.7887,-15.2815 168.2837,-45.8444 L 5288.995,4362.874 4982.1246,4599.7369 c -158.3848,122.252 -415.7598,122.252 -574.1447,0 L 4101.1096,4362.874 2645.9498,5486.0628 c 49.4954,30.5629 108.8896,45.8444 168.2838,45.8444 z M 2517.2624,3316.0927 V 5302.685 c 0,45.8444 19.7979,91.6888 59.3942,129.8927 L 4031.8165,4309.389 2566.7574,3193.8409 c -29.6971,38.2039 -49.495,76.4074 -49.495,122.2518 z m 4058.6085,-229.222 H 2814.2336 c -69.2934,0 -138.5867,22.9223 -188.082,53.4853 l 1851.1219,1405.8958 c 118.7884,91.689 306.8703,91.689 425.6588,0 L 6754.0538,3140.356 c -39.5963,-30.563 -108.8898,-53.4853 -178.1829,-53.4853 z m 296.9712,229.222 c 0,-45.8444 -19.7982,-84.0479 -49.4953,-122.2518 L 5358.2883,4309.389 6813.4479,5432.5777 c 29.6971,-38.2039 59.3942,-84.0483 59.3942,-129.8927 z"
     id="path14-7-1" />
</svg>
