<?xml version="1.0" encoding="UTF-8" standalone="no"?>
<svg
   xmlns:dc="http://purl.org/dc/elements/1.1/"
   xmlns:cc="http://creativecommons.org/ns#"
   xmlns:rdf="http://www.w3.org/1999/02/22-rdf-syntax-ns#"
   xmlns:svg="http://www.w3.org/2000/svg"
   xmlns="http://www.w3.org/2000/svg"
   xmlns:sodipodi="http://sodipodi.sourceforge.net/DTD/sodipodi-0.dtd"
   xmlns:inkscape="http://www.inkscape.org/namespaces/inkscape"
   width="91.44mm"
   height="91.44mm"
   version="1.1"
   style="shape-rendering:geometricPrecision; text-rendering:geometricPrecision; image-rendering:optimizeQuality; fill-rule:evenodd; clip-rule:evenodd"
   viewBox="0 0 9144 9144"
   id="svg13"
   sodipodi:docname="twitter.svg"
   inkscape:version="0.92.4 (5da689c313, 2019-01-14)">
  <metadata
     id="metadata17">
    <rdf:RDF>
      <cc:Work
         rdf:about="">
        <dc:format>image/svg+xml</dc:format>
        <dc:type
           rdf:resource="http://purl.org/dc/dcmitype/StillImage" />
      </cc:Work>
    </rdf:RDF>
  </metadata>
  <sodipodi:namedview
     pagecolor="#ffffff"
     bordercolor="#666666"
     borderopacity="1"
     objecttolerance="10"
     gridtolerance="10"
     guidetolerance="10"
     inkscape:pageopacity="0"
     inkscape:pageshadow="2"
     inkscape:window-width="1366"
     inkscape:window-height="705"
     id="namedview15"
     showgrid="false"
     inkscape:zoom="0.68287035"
     inkscape:cx="172.8"
     inkscape:cy="172.8"
     inkscape:window-x="-8"
     inkscape:window-y="-8"
     inkscape:window-maximized="1"
     inkscape:current-layer="svg13" />
  <defs
     id="defs4">
    <style
       type="text/css"
       id="style2">  .fil0 {fill:transparent} .fil1 {fill:#FFFFFF;fill-rule:nonzero}  </style>
  </defs>
  <path
     id="Shape_1_"
     d="m 6093.6426,3146.5684 c 179.9026,-119.197 319.8265,-297.9926 379.7941,-496.654 -159.9137,99.3303 -359.8052,178.7955 -539.7078,218.5274 -159.9136,-178.7956 -379.794,-278.1259 -619.6641,-278.1259 -479.7402,0 -859.5351,397.3229 -859.5351,893.9777 0,79.4645 0,139.063 19.9897,198.6615 -719.6103,-39.7326 -1359.2641,-397.3237 -1779.0368,-933.7104 -79.9564,139.0637 -119.935,297.9926 -119.935,456.9223 0,317.8585 159.9136,595.9851 379.794,754.9148 -139.924,0 -279.8479,-39.7326 -399.7829,-119.1971 v 19.8659 c 0,437.0556 299.8375,794.6467 699.6205,893.9778 -79.9564,19.8659 -139.9239,39.7326 -219.8804,39.7326 -59.9675,0 -99.9461,0 -159.9136,-19.8667 99.9461,357.5911 419.7726,615.8519 799.5667,635.7178 -299.8376,238.3941 -659.6428,377.457 -1079.4154,377.457 -59.9675,0 -139.924,0 -199.8915,-19.8659 379.794,258.26 839.5453,397.3237 1319.2855,397.3237 1579.1446,0 2458.6685,-1370.7659 2458.6685,-2562.7362 0,-39.7326 0,-79.4652 0,-119.1971 159.9137,-119.197 319.8266,-278.1266 419.7727,-476.7881 -159.9137,79.4644 -319.8265,119.197 -499.7291,139.0629 z"
     inkscape:connector-curvature="0"
     style="stroke-width:199.27577209;fill:white;" />
</svg>
